<svg xmlns="http://www.w3.org/2000/svg" width="20.981" height="24.968" viewBox="0 0 20.981 24.968">
    <path id="Icon_awesome-apple" data-name="Icon awesome-apple"
        d="M17.823,15.444a5.2,5.2,0,0,1,2.787-4.727,5.989,5.989,0,0,0-4.721-2.486c-1.979-.156-4.142,1.154-4.933,1.154-.836,0-2.754-1.1-4.259-1.1-3.11.05-6.416,2.481-6.416,7.425a13.893,13.893,0,0,0,.8,4.526C1.8,22.284,4.373,27.3,7.06,27.217c1.4-.033,2.4-1,4.225-1,1.773,0,2.692,1,4.259,1,2.709-.039,5.039-4.6,5.719-6.65a5.526,5.526,0,0,1-3.439-5.123ZM14.668,6.291A5.25,5.25,0,0,0,16.006,2.25,5.911,5.911,0,0,0,12.221,4.2,5.332,5.332,0,0,0,10.794,8.2a4.682,4.682,0,0,0,3.874-1.912Z"
        transform="translate(-0.281 -2.25)" fill="#fff" />
</svg>