<svg width="34" height="34" viewBox="0 0 34 34" fill="none" xmlns="http://www.w3.org/2000/svg">
    <path
        d="M29.6902 17.0133C26.682 13.5469 22.525 9.5625 17 9.5625C14.7688 9.5625 12.7234 10.1934 10.5652 11.5414C8.7457 12.6836 6.87969 14.2906 4.31641 16.9336L4.25 17L4.69492 17.4582C8.35391 21.2035 11.5148 24.4375 17 24.4375C19.4238 24.4375 21.7746 23.6473 24.1852 22.0203C26.2371 20.6324 27.9836 18.8727 29.3848 17.4516L29.75 17.0863L29.6902 17.0133ZM17 22.3125C14.0715 22.3125 11.6875 19.9285 11.6875 17C11.6875 14.0715 14.0715 11.6875 17 11.6875C19.9285 11.6875 22.3125 14.0715 22.3125 17C22.3125 19.9285 19.9285 22.3125 17 22.3125Z"
        fill="#C4C4C4" />
    <path
        d="M16.6281 15.0609C16.6281 14.6027 16.7609 14.1711 16.9934 13.8125C15.2336 13.8125 13.8125 15.2469 13.8125 17.0133C13.8125 18.7797 15.2402 20.2074 16.9934 20.2074C18.7465 20.2074 20.1809 18.7797 20.1809 17.0133C19.8223 17.2457 19.3906 17.3785 18.9324 17.3785C17.6641 17.3719 16.6281 16.3359 16.6281 15.0609Z"
        fill="#C4C4C4" />
</svg>