<svg xmlns="http://www.w3.org/2000/svg" width="40" height="40" viewBox="0 0 40 40">
    <g id="Group_3370" data-name="Group 3370" transform="translate(-301 -590)">
        <circle id="Ellipse_126" data-name="Ellipse 126" cx="20" cy="20" r="20" transform="translate(301 590)"
            fill="#68eeb4" />
        <path id="Icon_awesome-file-alt" data-name="Icon awesome-file-alt"
            d="M9.957,6.045V0H1.067A1.064,1.064,0,0,0,0,1.067V21.692a1.064,1.064,0,0,0,1.067,1.067H16a1.064,1.064,0,0,0,1.067-1.067V7.112H11.024A1.07,1.07,0,0,1,9.957,6.045ZM12.8,16.536a.535.535,0,0,1-.533.533H4.8a.535.535,0,0,1-.533-.533V16.18a.535.535,0,0,1,.533-.533h7.468a.535.535,0,0,1,.533.533Zm0-2.845a.535.535,0,0,1-.533.533H4.8a.535.535,0,0,1-.533-.533v-.356A.535.535,0,0,1,4.8,12.8h7.468a.535.535,0,0,1,.533.533Zm0-3.2v.356a.535.535,0,0,1-.533.533H4.8a.535.535,0,0,1-.533-.533V10.49A.535.535,0,0,1,4.8,9.957h7.468A.535.535,0,0,1,12.8,10.49Zm4.267-5.072V5.69h-5.69V0h.271a1.066,1.066,0,0,1,.756.311l4.352,4.356A1.063,1.063,0,0,1,17.069,5.418Z"
            transform="translate(312.466 598.621)" fill="#fff" />
    </g>
</svg>