<svg xmlns="http://www.w3.org/2000/svg" width="16.624" height="16.62" viewBox="0 0 16.624 16.62">
    <path id="Icon_ionic-ios-globe" data-name="Icon ionic-ios-globe"
        d="M11.685,3.375h-.028a8.31,8.31,0,0,0,0,16.62h.028a8.31,8.31,0,1,0,0-16.62Zm7.2,7.751h-3.1a15.733,15.733,0,0,0-.392-3.044,12.171,12.171,0,0,0,1.986-.839A7.158,7.158,0,0,1,18.884,11.126Zm-7.759,0H8.657a14.2,14.2,0,0,1,.352-2.761,12.155,12.155,0,0,0,2.117.284Zm0,1.119v2.473A12.206,12.206,0,0,0,9.008,15a14.2,14.2,0,0,1-.352-2.757Zm1.119,0h2.449A14.117,14.117,0,0,1,14.342,15a11.925,11.925,0,0,0-2.1-.28Zm0-1.119V8.649a12.207,12.207,0,0,0,2.1-.28,14.159,14.159,0,0,1,.352,2.757Zm4.371-4.71a11.1,11.1,0,0,1-1.518.619,8.249,8.249,0,0,0-1.059-2.177A7.23,7.23,0,0,1,16.615,6.415Zm-2.573.907a11.244,11.244,0,0,1-1.8.24V4.629A4.841,4.841,0,0,1,14.042,7.322ZM11.126,4.614V7.558a11.05,11.05,0,0,1-1.818-.244A4.838,4.838,0,0,1,11.126,4.614ZM9.3,4.869A8.314,8.314,0,0,0,8.253,7.031a11.349,11.349,0,0,1-1.5-.615A7.121,7.121,0,0,1,9.3,4.869ZM5.992,7.246a11.93,11.93,0,0,0,1.966.831,15.1,15.1,0,0,0-.392,3.044H4.49A7.121,7.121,0,0,1,5.992,7.246Zm-1.506,5H7.562a15.693,15.693,0,0,0,.392,3.044,12.658,12.658,0,0,0-1.966.831A7.159,7.159,0,0,1,4.486,12.244Zm2.265,4.71a11.181,11.181,0,0,1,1.5-.615A8.344,8.344,0,0,0,9.3,18.5,7.3,7.3,0,0,1,6.751,16.955Zm2.557-.9a11.108,11.108,0,0,1,1.818-.244v2.948A4.831,4.831,0,0,1,9.308,16.052Zm2.936,2.689V15.8a11.244,11.244,0,0,1,1.8.24A4.839,4.839,0,0,1,12.244,18.741Zm1.8-.228A8.249,8.249,0,0,0,15.1,16.335a10.916,10.916,0,0,1,1.518.623A7.313,7.313,0,0,1,14.042,18.513Zm3.336-2.389a12.171,12.171,0,0,0-1.986-.839,15.651,15.651,0,0,0,.392-3.04h3.1A7.126,7.126,0,0,1,17.378,16.124Z"
        transform="translate(-3.375 -3.375)" fill="#438bcf" />
</svg>