<svg xmlns="http://www.w3.org/2000/svg" width="40" height="40" viewBox="0 0 40 40">
    <g id="Group_3372" data-name="Group 3372" transform="translate(-35 -590)">
        <path id="Path_11528" data-name="Path 11528" d="M20,0A20,20,0,1,1,0,20,20,20,0,0,1,20,0Z"
            transform="translate(35 590)" fill="#0064fe" />
        <path id="Icon_awesome-image" data-name="Icon awesome-image"
            d="M20.625,21.569H2.134A2.134,2.134,0,0,1,0,19.435V6.634A2.134,2.134,0,0,1,2.134,4.5H20.625a2.134,2.134,0,0,1,2.134,2.134v12.8A2.134,2.134,0,0,1,20.625,21.569ZM4.978,6.989A2.489,2.489,0,1,0,7.468,9.478,2.489,2.489,0,0,0,4.978,6.989ZM2.845,18.724H19.914V13.746l-3.89-3.89a.533.533,0,0,0-.754,0L9.246,15.879,6.778,13.412a.533.533,0,0,0-.754,0L2.845,16.59Z"
            transform="translate(43.62 597.173)" fill="#fff" />
    </g>
</svg>