<svg xmlns="http://www.w3.org/2000/svg" width="16.029" height="14.571" viewBox="0 0 16.029 14.571">
    <path id="Icon_material-thumb-up" data-name="Icon material-thumb-up"
        d="M17.529,16.071H14.614V7.329h2.914ZM1.5,8.057A1.461,1.461,0,0,1,2.957,6.6h4.6L6.862,3.27,6.84,3.037a1.1,1.1,0,0,1,.321-.772L7.933,1.5l4.794,4.8a1.425,1.425,0,0,1,.43,1.027v7.286A1.461,1.461,0,0,1,11.7,16.071H5.143A1.447,1.447,0,0,1,3.8,15.183L1.6,10.046a1.439,1.439,0,0,1-.1-.532V8.123l.007-.007Z"
        transform="translate(-1.5 -1.5)" fill="#0064fe" />
</svg>