<svg xmlns="http://www.w3.org/2000/svg" width="13.536" height="16.349" viewBox="0 0 13.536 16.349">
    <path id="Icon_ionic-ios-flag" data-name="Icon ionic-ios-flag"
        d="M18.918,5.171c-.121.02-.251.04-.388.056a22.632,22.632,0,0,1-2.373.208,14.143,14.143,0,0,1-3.063-.488A14.717,14.717,0,0,0,9.938,4.5a5.688,5.688,0,0,0-3.027.536l-.161.116V19.272a.567.567,0,0,0,.482.572.552.552,0,0,0,.615-.556V13.117A.323.323,0,0,1,8.1,12.8a9.317,9.317,0,0,1,1.841-.156,14.41,14.41,0,0,1,3,.62,13.548,13.548,0,0,0,3.266.46,18.206,18.206,0,0,0,2.812-.264.32.32,0,0,0,.27-.316V5.487A.321.321,0,0,0,18.918,5.171Z"
        transform="translate(-6.25 -4)" fill="none" stroke="#000" stroke-width="1" />
</svg>