<svg xmlns="http://www.w3.org/2000/svg" width="17.911" height="11.047" viewBox="0 0 17.911 11.047">
    <path id="Icon_awesome-retweet" data-name="Icon awesome-retweet"
        d="M17.946,12.268,15.1,15.115a.679.679,0,0,1-.96,0l-2.847-2.847a.679.679,0,0,1,0-.96L11.6,11a.679.679,0,0,1,.973.014l1.143,1.21V7.076H8.41a.679.679,0,0,1-.48-.2l-.452-.452a.679.679,0,0,1,.48-1.159h6.887a.679.679,0,0,1,.679.679v6.281l1.143-1.21A.679.679,0,0,1,17.64,11l.306.306a.679.679,0,0,1,0,.96Zm-7.5.436a.679.679,0,0,0-.48-.2h-5.3V7.355l1.143,1.21a.679.679,0,0,0,.973.014l.306-.306a.679.679,0,0,0,0-.96L4.239,4.466a.679.679,0,0,0-.96,0L.432,7.313a.679.679,0,0,0,0,.96l.306.306a.679.679,0,0,0,.973-.014l1.143-1.21v6.281a.679.679,0,0,0,.679.679H10.42a.679.679,0,0,0,.48-1.159Z"
        transform="translate(-0.233 -4.267)" />
</svg>