<svg xmlns="http://www.w3.org/2000/svg" width="14.283" height="14.92" viewBox="0 0 14.283 14.92">
    <path id="Icon_awesome-cog" data-name="Icon awesome-cog"
        d="M15.411,9.822l-1.281-.74a5.794,5.794,0,0,0,0-2.112l1.281-.74a.364.364,0,0,0,.165-.421,7.492,7.492,0,0,0-1.645-2.846.362.362,0,0,0-.445-.069l-1.281.74a5.677,5.677,0,0,0-1.829-1.056V1.1A.36.36,0,0,0,10.093.75a7.562,7.562,0,0,0-3.285,0,.36.36,0,0,0-.283.352v1.48A5.856,5.856,0,0,0,4.7,3.638L3.418,2.9a.357.357,0,0,0-.445.069A7.447,7.447,0,0,0,1.328,5.813a.36.36,0,0,0,.165.421l1.281.74a5.794,5.794,0,0,0,0,2.112l-1.281.74a.364.364,0,0,0-.165.421,7.492,7.492,0,0,0,1.645,2.846.362.362,0,0,0,.445.069l1.281-.74a5.677,5.677,0,0,0,1.829,1.056v1.48a.36.36,0,0,0,.283.352,7.562,7.562,0,0,0,3.285,0,.36.36,0,0,0,.283-.352v-1.48a5.856,5.856,0,0,0,1.829-1.056l1.281.74a.357.357,0,0,0,.445-.069,7.447,7.447,0,0,0,1.645-2.846.371.371,0,0,0-.168-.424Zm-6.961.611a2.406,2.406,0,1,1,2.406-2.406A2.41,2.41,0,0,1,8.451,10.433Z"
        transform="translate(-1.311 -0.569)" fill="#fff" />
</svg>